<?xml version="1.0" encoding="UTF-8" standalone="no"?>
<svg
   xmlns:dc="http://purl.org/dc/elements/1.1/"
   xmlns:cc="http://creativecommons.org/ns#"
   xmlns:rdf="http://www.w3.org/1999/02/22-rdf-syntax-ns#"
   xmlns:svg="http://www.w3.org/2000/svg"
   xmlns="http://www.w3.org/2000/svg"
   id="svg8"
   version="1.1"
   viewBox="0 0 31.750001 31.749999"
   height="120"
   width="120">
  <defs
     id="defs2">
    <clipPath
       id="clipPath859"
       clipPathUnits="userSpaceOnUse">
      <circle
         r="15.875"
         cy="-7.0589199"
         cx="145.46182"
         id="circle861"
         style="fill:#ffffff;fill-opacity:1;stroke:none;stroke-width:1.35670388;stroke-miterlimit:4;stroke-dasharray:none;stroke-opacity:1" />
    </clipPath>
    <clipPath
       id="clipPath863"
       clipPathUnits="userSpaceOnUse">
      <circle
         r="15.875"
         cy="-7.0589199"
         cx="145.46182"
         id="circle865"
         style="fill:#ffffff;fill-opacity:1;stroke:none;stroke-width:1.35670388;stroke-miterlimit:4;stroke-dasharray:none;stroke-opacity:1" />
    </clipPath>
    <clipPath
       id="clipPath867"
       clipPathUnits="userSpaceOnUse">
      <ellipse
         ry="170.31578"
         rx="161.79999"
         cy="76.123627"
         cx="207.07007"
         id="circle869"
         style="fill:#ffffff;fill-opacity:1;stroke:none;stroke-width:14.1869173;stroke-miterlimit:4;stroke-dasharray:none;stroke-opacity:1" />
    </clipPath>
    <clipPath
       id="clipPath863-3"
       clipPathUnits="userSpaceOnUse">
      <circle
         r="15.875"
         cy="-7.0589199"
         cx="145.46182"
         id="circle865-6"
         style="fill:#ffffff;fill-opacity:1;stroke:none;stroke-width:1.35670388;stroke-miterlimit:4;stroke-dasharray:none;stroke-opacity:1" />
    </clipPath>
    <clipPath
       id="clipPath863-3-7"
       clipPathUnits="userSpaceOnUse">
      <circle
         r="15.875"
         cy="-7.0589199"
         cx="145.46182"
         id="circle865-6-5"
         style="fill:#ffffff;fill-opacity:1;stroke:none;stroke-width:1.35670388;stroke-miterlimit:4;stroke-dasharray:none;stroke-opacity:1" />
    </clipPath>
  </defs>
  <metadata
     id="metadata5">
    <rdf:RDF>
      <cc:Work
         rdf:about="">
        <dc:format>image/svg+xml</dc:format>
        <dc:type
           rdf:resource="http://purl.org/dc/dcmitype/StillImage" />
        <dc:title></dc:title>
      </cc:Work>
    </rdf:RDF>
  </metadata>
  <g
     transform="translate(-129.58682,22.93392)"
     id="layer1">
    <path
       id="rect40-3"
       d="m 129.58682,-22.93392 h 31.75 v 15.8750001 h -31.75 z"
       clip-path="url(#clipPath863-3-7)"
       style="fill:#ffffff;fill-opacity:1;stroke-width:0.61276764"
       transform="rotate(-180,145.46182,-7.05892)" />
    <path
       id="rect40"
       d="m 129.58682,-22.93392 h 31.75 v 15.8750001 h -31.75 z"
       clip-path="url(#clipPath863-3)"
       style="fill:#ffed00;stroke-width:0.61276764"
       transform="translate(-2.5097656e-6)" />
    <g
       id="flowRoot47"
       style="font-style:normal;font-weight:normal;font-size:40px;line-height:125%;font-family:sans-serif;letter-spacing:0px;word-spacing:0px;fill:#009ee3;fill-opacity:1;stroke:none;stroke-width:3.77952766;stroke-linecap:butt;stroke-linejoin:miter;stroke-miterlimit:4;stroke-dasharray:none;stroke-opacity:1"
       transform="matrix(0.09811496,0,0,0.09320921,125.14522,-14.154343)"
       aria-label="

Männer

">
      <path
         id="path240"
         style="font-style:normal;font-variant:normal;font-weight:bold;font-stretch:normal;font-size:66.66666412px;font-family:Orbitron;-inkscape-font-specification:'Orbitron, Bold';font-variant-ligatures:normal;font-variant-caps:normal;font-variant-numeric:normal;font-feature-settings:normal;text-align:start;writing-mode:lr-tb;text-anchor:start;fill:#009ee3;fill-opacity:1;stroke:none;stroke-width:3.77952766;stroke-miterlimit:4;stroke-dasharray:none;stroke-opacity:1"
         d="M 96.150265,119.88854 113.55026,99.088542 h 9.66667 v 47.999998 h -8.86667 v -35.2 L 96.150265,133.55521 77.883599,111.88854 v 35.2 h -8.8 V 99.088542 h 9.6 z" />
      <path
         id="path242"
         style="font-style:normal;font-variant:normal;font-weight:bold;font-stretch:normal;font-size:66.66666412px;font-family:Orbitron;-inkscape-font-specification:'Orbitron, Bold';font-variant-ligatures:normal;font-variant-caps:normal;font-variant-numeric:normal;font-feature-settings:normal;text-align:center;writing-mode:lr-tb;text-anchor:middle;fill:#009ee3;fill-opacity:1;stroke-width:3.77952766;stroke-miterlimit:4;stroke-dasharray:none"
         d="m 160.73255,108.42187 q 3.8,0 6.46667,2.73334 2.73333,2.66666 2.73333,6.46666 v 29.46667 h -30.06666 q -3.8,0 -6.53333,-2.66667 -2.66667,-2.73333 -2.66667,-6.53333 v -14.53333 h 30.53333 v -5.73334 q 0,-0.46666 -0.46667,-0.46666 h -30.06666 v -8.73334 z m 0.46667,29.93334 v -6.2 h -21.8 v 5.73333 q 0,0.46667 0.46667,0.46667 z m 1.06667,-45.200001 v 8.800001 h -8.8 v -8.800001 z m -11.46667,0 v 8.800001 h -8.73333 v -8.800001 z" />
      <path
         id="path244"
         style="font-style:normal;font-variant:normal;font-weight:bold;font-stretch:normal;font-size:66.66666412px;font-family:Orbitron;-inkscape-font-specification:'Orbitron, Bold';font-variant-ligatures:normal;font-variant-caps:normal;font-variant-numeric:normal;font-feature-settings:normal;text-align:center;writing-mode:lr-tb;text-anchor:middle;fill:#009ee3;fill-opacity:1;stroke-width:3.77952766;stroke-miterlimit:4;stroke-dasharray:none"
         d="m 209.17318,108.42187 q 3.8,0 6.46667,2.73334 2.73333,2.66666 2.73333,6.46666 v 29.46667 h -8.73333 v -29.46667 q 0,-0.46666 -0.46667,-0.46666 h -20.86666 q -0.46667,0 -0.46667,0.46666 v 29.46667 h -8.73333 v -38.66667 z" />
      <path
         id="path246"
         style="font-style:normal;font-variant:normal;font-weight:bold;font-stretch:normal;font-size:66.66666412px;font-family:Orbitron;-inkscape-font-specification:'Orbitron, Bold';font-variant-ligatures:normal;font-variant-caps:normal;font-variant-numeric:normal;font-feature-settings:normal;text-align:center;writing-mode:lr-tb;text-anchor:middle;fill:#009ee3;fill-opacity:1;stroke-width:3.77952766;stroke-miterlimit:4;stroke-dasharray:none"
         d="m 255.52734,108.42187 q 3.8,0 6.46666,2.73334 2.73334,2.66666 2.73334,6.46666 v 29.46667 H 255.994 v -29.46667 q 0,-0.46666 -0.46666,-0.46666 h -20.86667 q -0.46666,0 -0.46666,0.46666 v 29.46667 h -8.73334 v -38.66667 z" />
      <path
         id="path248"
         style="font-style:normal;font-variant:normal;font-weight:bold;font-stretch:normal;font-size:66.66666412px;font-family:Orbitron;-inkscape-font-specification:'Orbitron, Bold';font-variant-ligatures:normal;font-variant-caps:normal;font-variant-numeric:normal;font-feature-settings:normal;text-align:center;writing-mode:lr-tb;text-anchor:middle;fill:#009ee3;fill-opacity:1;stroke-width:3.77952766;stroke-miterlimit:4;stroke-dasharray:none"
         d="m 299.98881,108.42187 q 3.8,0 6.46666,2.73334 2.73334,2.66666 2.73334,6.46666 v 14.53334 h -30.53334 v 5.73333 q 0,0.46667 0.46667,0.46667 h 30.06667 v 8.73333 h -30.06667 q -3.8,0 -6.53333,-2.66667 -2.66667,-2.73333 -2.66667,-6.53333 v -20.26667 q 0,-3.8 2.66667,-6.46666 2.73333,-2.73334 6.53333,-2.73334 z m -21.33334,14.93334 h 21.8 v -5.73334 q 0,-0.46666 -0.46666,-0.46666 h -20.86667 q -0.46667,0 -0.46667,0.46666 z" />
      <path
         id="path250"
         style="font-style:normal;font-variant:normal;font-weight:bold;font-stretch:normal;font-size:66.66666412px;font-family:Orbitron;-inkscape-font-specification:'Orbitron, Bold';font-variant-ligatures:normal;font-variant-caps:normal;font-variant-numeric:normal;font-feature-settings:normal;text-align:center;writing-mode:lr-tb;text-anchor:middle;fill:#009ee3;fill-opacity:1;stroke-width:3.77952766;stroke-miterlimit:4;stroke-dasharray:none"
         d="m 323.58984,108.42187 h 21.46666 v 8.73334 h -21.46666 q -0.46667,0 -0.46667,0.46666 v 29.46667 h -8.73333 v -29.46667 q 0,-3.8 2.66667,-6.46666 2.73333,-2.73334 6.53333,-2.73334 z" />
    </g>
    <g
       transform="translate(0.47249875,2.1352803)"
       id="text4527"
       style="font-style:normal;font-variant:normal;font-weight:bold;font-stretch:normal;font-size:5.89127445px;line-height:125%;font-family:Orbitron;-inkscape-font-specification:'Orbitron, Bold';font-variant-ligatures:normal;font-variant-caps:normal;font-variant-numeric:normal;font-feature-settings:normal;text-align:start;letter-spacing:0px;word-spacing:0px;writing-mode:lr-tb;text-anchor:start;fill:#e5007d;fill-opacity:1;stroke:none;stroke-width:0.14728186px;stroke-linecap:butt;stroke-linejoin:miter;stroke-opacity:1"
       aria-label="Liberale">
      <path
         id="path261"
         style="font-style:normal;font-variant:normal;font-weight:bold;font-stretch:normal;font-size:5.89127445px;font-family:Orbitron;-inkscape-font-specification:'Orbitron, Bold';font-variant-ligatures:normal;font-variant-caps:normal;font-variant-numeric:normal;font-feature-settings:normal;text-align:start;writing-mode:lr-tb;text-anchor:start;fill:#e5007d;fill-opacity:1;stroke-width:0.14728186px"
         d="m 131.75989,-11.310869 v -4.247609 h 0.77765 v 3.469961 h 3.46407 v 0.777648 z" />
      <path
         id="path263"
         style="font-style:normal;font-variant:normal;font-weight:bold;font-stretch:normal;font-size:5.89127445px;font-family:Orbitron;-inkscape-font-specification:'Orbitron, Bold';font-variant-ligatures:normal;font-variant-caps:normal;font-variant-numeric:normal;font-feature-settings:normal;text-align:start;writing-mode:lr-tb;text-anchor:start;fill:#e5007d;fill-opacity:1;stroke-width:0.14728186px"
         d="m 136.32149,-11.310869 v -3.416939 h 0.77175 v 3.416939 z m 0,-4.536282 h 0.77175 v 0.777649 h -0.77175 z" />
      <path
         id="path265"
         style="font-style:normal;font-variant:normal;font-weight:bold;font-stretch:normal;font-size:5.89127445px;font-family:Orbitron;-inkscape-font-specification:'Orbitron, Bold';font-variant-ligatures:normal;font-variant-caps:normal;font-variant-numeric:normal;font-feature-settings:normal;text-align:start;writing-mode:lr-tb;text-anchor:start;fill:#e5007d;fill-opacity:1;stroke-width:0.14728186px"
         d="m 140.35949,-14.727808 q 0.33581,0 0.57146,0.241542 0.24154,0.235651 0.24154,0.571453 v 1.790948 q 0,0.335803 -0.24154,0.577345 -0.23565,0.235651 -0.57146,0.235651 h -2.65696 v -4.536282 h 0.77176 v 1.119343 z m 0.0412,2.603943 v -1.790948 q 0,-0.04124 -0.0412,-0.04124 h -1.84396 q -0.0412,0 -0.0412,0.04124 v 1.790948 q 0,0.04124 0.0412,0.04124 h 1.84396 q 0.0412,0 0.0412,-0.04124 z" />
      <path
         id="path267"
         style="font-style:normal;font-variant:normal;font-weight:bold;font-stretch:normal;font-size:5.89127445px;font-family:Orbitron;-inkscape-font-specification:'Orbitron, Bold';font-variant-ligatures:normal;font-variant-caps:normal;font-variant-numeric:normal;font-feature-settings:normal;text-align:start;writing-mode:lr-tb;text-anchor:start;fill:#e5007d;fill-opacity:1;stroke-width:0.14728186px"
         d="m 144.27701,-14.727808 q 0.3358,0 0.57145,0.241542 0.24154,0.235651 0.24154,0.571453 v 1.284298 h -2.6982 v 0.50665 q 0,0.04124 0.0412,0.04124 h 2.657 v 0.771757 h -2.65696 q -0.3358,0 -0.57735,-0.235651 -0.23565,-0.241542 -0.23565,-0.577345 v -1.790948 q 0,-0.335802 0.23565,-0.571453 0.24155,-0.241542 0.57735,-0.241542 z m -1.88521,1.319645 h 1.92645 v -0.50665 q 0,-0.04124 -0.0412,-0.04124 h -1.84397 q -0.0412,0 -0.0412,0.04124 z" />
      <path
         id="path269"
         style="font-style:normal;font-variant:normal;font-weight:bold;font-stretch:normal;font-size:5.89127445px;font-family:Orbitron;-inkscape-font-specification:'Orbitron, Bold';font-variant-ligatures:normal;font-variant-caps:normal;font-variant-numeric:normal;font-feature-settings:normal;text-align:start;writing-mode:lr-tb;text-anchor:start;fill:#e5007d;fill-opacity:1;stroke-width:0.14728186px"
         d="m 146.36261,-14.727808 h 1.89699 v 0.771757 h -1.89699 q -0.0412,0 -0.0412,0.04124 v 2.603944 h -0.77176 v -2.603944 q 0,-0.335802 0.23566,-0.571453 0.24154,-0.241542 0.57734,-0.241542 z" />
      <path
         id="path271"
         style="font-style:normal;font-variant:normal;font-weight:bold;font-stretch:normal;font-size:5.89127445px;font-family:Orbitron;-inkscape-font-specification:'Orbitron, Bold';font-variant-ligatures:normal;font-variant-caps:normal;font-variant-numeric:normal;font-feature-settings:normal;text-align:start;writing-mode:lr-tb;text-anchor:start;fill:#e5007d;fill-opacity:1;stroke-width:0.14728186px"
         d="m 151.46289,-14.727808 q 0.3358,0 0.57145,0.241542 0.24155,0.235651 0.24155,0.571453 v 2.603944 h -2.65697 q -0.3358,0 -0.57734,-0.235651 -0.23566,-0.241542 -0.23566,-0.577345 v -1.284298 h 2.69821 v -0.50665 q 0,-0.04124 -0.0412,-0.04124 h -2.65697 v -0.771757 z m 0.0412,2.645182 v -0.547889 h -1.92645 v 0.50665 q 0,0.04124 0.0412,0.04124 z" />
      <path
         id="path273"
         style="font-style:normal;font-variant:normal;font-weight:bold;font-stretch:normal;font-size:5.89127445px;font-family:Orbitron;-inkscape-font-specification:'Orbitron, Bold';font-variant-ligatures:normal;font-variant-caps:normal;font-variant-numeric:normal;font-feature-settings:normal;text-align:start;writing-mode:lr-tb;text-anchor:start;fill:#e5007d;fill-opacity:1;stroke-width:0.14728186px"
         d="m 152.72961,-15.847151 h 0.77764 v 3.723286 q 0,0.04124 0.0353,0.04124 h 0.68928 v 0.771757 h -0.68928 q -0.3358,0 -0.57734,-0.235651 -0.23565,-0.241542 -0.23565,-0.577345 z" />
      <path
         id="path275"
         style="font-style:normal;font-variant:normal;font-weight:bold;font-stretch:normal;font-size:5.89127445px;font-family:Orbitron;-inkscape-font-specification:'Orbitron, Bold';font-variant-ligatures:normal;font-variant-caps:normal;font-variant-numeric:normal;font-feature-settings:normal;text-align:start;writing-mode:lr-tb;text-anchor:start;fill:#e5007d;fill-opacity:1;stroke-width:0.14728186px"
         d="m 157.40581,-14.727808 q 0.3358,0 0.57145,0.241542 0.24154,0.235651 0.24154,0.571453 v 1.284298 h -2.6982 v 0.50665 q 0,0.04124 0.0412,0.04124 h 2.65696 v 0.771757 h -2.65696 q -0.33581,0 -0.57735,-0.235651 -0.23565,-0.241542 -0.23565,-0.577345 v -1.790948 q 0,-0.335802 0.23565,-0.571453 0.24154,-0.241542 0.57735,-0.241542 z m -1.88521,1.319645 h 1.92644 v -0.50665 q 0,-0.04124 -0.0412,-0.04124 h -1.84397 q -0.0412,0 -0.0412,0.04124 z" />
    </g>
  </g>
</svg>
